<?xml version="1.0" encoding="UTF-8" standalone="no"?>
<!DOCTYPE svg PUBLIC "-//W3C//DTD SVG 1.1//EN"
 "http://www.w3.org/Graphics/SVG/1.1/DTD/svg11.dtd">
<!-- Generated by graphviz version 10.0.1 (0)
 -->
<!-- Pages: 1 -->
<svg width="566pt" height="260pt"
 viewBox="0.00 0.00 566.00 260.00" xmlns="http://www.w3.org/2000/svg" xmlns:xlink="http://www.w3.org/1999/xlink">
<g id="graph0" class="graph" transform="scale(1 1) rotate(0) translate(4 256)">
<polygon fill="white" stroke="none" points="-4,4 -4,-256 562,-256 562,4 -4,4"/>
<!-- 20 -->
<g id="node1" class="node">
<title>20</title>
<ellipse fill="none" stroke="black" cx="279" cy="-234" rx="27" ry="18"/>
<text text-anchor="middle" x="279" y="-229.32" font-family="Times,serif" font-size="14.00">20</text>
</g>
<!-- 10 -->
<g id="node2" class="node">
<title>10</title>
<ellipse fill="none" stroke="black" cx="207" cy="-162" rx="27" ry="18"/>
<text text-anchor="middle" x="207" y="-157.32" font-family="Times,serif" font-size="14.00">10</text>
</g>
<!-- 20&#45;&gt;10 -->
<g id="edge1" class="edge">
<title>20&#45;&gt;10</title>
<path fill="none" stroke="black" d="M264.08,-218.5C254.23,-208.92 241.14,-196.19 229.97,-185.34"/>
<polygon fill="black" stroke="black" points="232.59,-183 222.98,-178.54 227.71,-188.02 232.59,-183"/>
</g>
<!-- 30 -->
<g id="node9" class="node">
<title>30</title>
<ellipse fill="none" stroke="black" cx="351" cy="-162" rx="27" ry="18"/>
<text text-anchor="middle" x="351" y="-157.32" font-family="Times,serif" font-size="14.00">30</text>
</g>
<!-- 20&#45;&gt;30 -->
<g id="edge8" class="edge">
<title>20&#45;&gt;30</title>
<path fill="none" stroke="black" d="M293.92,-218.5C303.77,-208.92 316.86,-196.19 328.03,-185.34"/>
<polygon fill="black" stroke="black" points="330.29,-188.02 335.02,-178.54 325.41,-183 330.29,-188.02"/>
</g>
<!-- 5 -->
<g id="node3" class="node">
<title>5</title>
<ellipse fill="none" stroke="black" cx="99" cy="-90" rx="27" ry="18"/>
<text text-anchor="middle" x="99" y="-85.33" font-family="Times,serif" font-size="14.00">5</text>
</g>
<!-- 10&#45;&gt;5 -->
<g id="edge2" class="edge">
<title>10&#45;&gt;5</title>
<path fill="none" stroke="black" d="M188.19,-148.81C171.41,-137.93 146.61,-121.86 127.41,-109.42"/>
<polygon fill="black" stroke="black" points="129.52,-106.61 119.23,-104.11 125.72,-112.49 129.52,-106.61"/>
</g>
<!-- 15 -->
<g id="node6" class="node">
<title>15</title>
<ellipse fill="none" stroke="black" cx="207" cy="-90" rx="27" ry="18"/>
<text text-anchor="middle" x="207" y="-85.33" font-family="Times,serif" font-size="14.00">15</text>
</g>
<!-- 10&#45;&gt;15 -->
<g id="edge5" class="edge">
<title>10&#45;&gt;15</title>
<path fill="none" stroke="black" d="M207,-143.7C207,-136.41 207,-127.73 207,-119.54"/>
<polygon fill="black" stroke="black" points="210.5,-119.62 207,-109.62 203.5,-119.62 210.5,-119.62"/>
</g>
<!-- 3 -->
<g id="node4" class="node">
<title>3</title>
<ellipse fill="none" stroke="black" cx="27" cy="-18" rx="27" ry="18"/>
<text text-anchor="middle" x="27" y="-13.32" font-family="Times,serif" font-size="14.00">3</text>
</g>
<!-- 5&#45;&gt;3 -->
<g id="edge3" class="edge">
<title>5&#45;&gt;3</title>
<path fill="none" stroke="black" d="M84.08,-74.5C74.23,-64.92 61.14,-52.19 49.97,-41.34"/>
<polygon fill="black" stroke="black" points="52.59,-39 42.98,-34.54 47.71,-44.02 52.59,-39"/>
</g>
<!-- 7 -->
<g id="node5" class="node">
<title>7</title>
<ellipse fill="none" stroke="black" cx="99" cy="-18" rx="27" ry="18"/>
<text text-anchor="middle" x="99" y="-13.32" font-family="Times,serif" font-size="14.00">7</text>
</g>
<!-- 5&#45;&gt;7 -->
<g id="edge4" class="edge">
<title>5&#45;&gt;7</title>
<path fill="none" stroke="black" d="M99,-71.7C99,-64.41 99,-55.73 99,-47.54"/>
<polygon fill="black" stroke="black" points="102.5,-47.62 99,-37.62 95.5,-47.62 102.5,-47.62"/>
</g>
<!-- 12 -->
<g id="node7" class="node">
<title>12</title>
<ellipse fill="none" stroke="black" cx="171" cy="-18" rx="27" ry="18"/>
<text text-anchor="middle" x="171" y="-13.32" font-family="Times,serif" font-size="14.00">12</text>
</g>
<!-- 15&#45;&gt;12 -->
<g id="edge6" class="edge">
<title>15&#45;&gt;12</title>
<path fill="none" stroke="black" d="M198.65,-72.76C194.42,-64.55 189.19,-54.37 184.42,-45.09"/>
<polygon fill="black" stroke="black" points="187.68,-43.79 180,-36.49 181.46,-46.99 187.68,-43.79"/>
</g>
<!-- 18 -->
<g id="node8" class="node">
<title>18</title>
<ellipse fill="none" stroke="black" cx="243" cy="-18" rx="27" ry="18"/>
<text text-anchor="middle" x="243" y="-13.32" font-family="Times,serif" font-size="14.00">18</text>
</g>
<!-- 15&#45;&gt;18 -->
<g id="edge7" class="edge">
<title>15&#45;&gt;18</title>
<path fill="none" stroke="black" d="M215.35,-72.76C219.58,-64.55 224.81,-54.37 229.58,-45.09"/>
<polygon fill="black" stroke="black" points="232.54,-46.99 234,-36.49 226.32,-43.79 232.54,-46.99"/>
</g>
<!-- 25 -->
<g id="node10" class="node">
<title>25</title>
<ellipse fill="none" stroke="black" cx="351" cy="-90" rx="27" ry="18"/>
<text text-anchor="middle" x="351" y="-85.33" font-family="Times,serif" font-size="14.00">25</text>
</g>
<!-- 30&#45;&gt;25 -->
<g id="edge9" class="edge">
<title>30&#45;&gt;25</title>
<path fill="none" stroke="black" d="M351,-143.7C351,-136.41 351,-127.73 351,-119.54"/>
<polygon fill="black" stroke="black" points="354.5,-119.62 351,-109.62 347.5,-119.62 354.5,-119.62"/>
</g>
<!-- 35 -->
<g id="node13" class="node">
<title>35</title>
<ellipse fill="none" stroke="black" cx="459" cy="-90" rx="27" ry="18"/>
<text text-anchor="middle" x="459" y="-85.33" font-family="Times,serif" font-size="14.00">35</text>
</g>
<!-- 30&#45;&gt;35 -->
<g id="edge12" class="edge">
<title>30&#45;&gt;35</title>
<path fill="none" stroke="black" d="M369.81,-148.81C386.59,-137.93 411.39,-121.86 430.59,-109.42"/>
<polygon fill="black" stroke="black" points="432.28,-112.49 438.77,-104.11 428.48,-106.61 432.28,-112.49"/>
</g>
<!-- 22 -->
<g id="node11" class="node">
<title>22</title>
<ellipse fill="none" stroke="black" cx="315" cy="-18" rx="27" ry="18"/>
<text text-anchor="middle" x="315" y="-13.32" font-family="Times,serif" font-size="14.00">22</text>
</g>
<!-- 25&#45;&gt;22 -->
<g id="edge10" class="edge">
<title>25&#45;&gt;22</title>
<path fill="none" stroke="black" d="M342.65,-72.76C338.42,-64.55 333.19,-54.37 328.42,-45.09"/>
<polygon fill="black" stroke="black" points="331.68,-43.79 324,-36.49 325.46,-46.99 331.68,-43.79"/>
</g>
<!-- 28 -->
<g id="node12" class="node">
<title>28</title>
<ellipse fill="none" stroke="black" cx="387" cy="-18" rx="27" ry="18"/>
<text text-anchor="middle" x="387" y="-13.32" font-family="Times,serif" font-size="14.00">28</text>
</g>
<!-- 25&#45;&gt;28 -->
<g id="edge11" class="edge">
<title>25&#45;&gt;28</title>
<path fill="none" stroke="black" d="M359.35,-72.76C363.58,-64.55 368.81,-54.37 373.58,-45.09"/>
<polygon fill="black" stroke="black" points="376.54,-46.99 378,-36.49 370.32,-43.79 376.54,-46.99"/>
</g>
<!-- 34 -->
<g id="node14" class="node">
<title>34</title>
<ellipse fill="none" stroke="black" cx="459" cy="-18" rx="27" ry="18"/>
<text text-anchor="middle" x="459" y="-13.32" font-family="Times,serif" font-size="14.00">34</text>
</g>
<!-- 35&#45;&gt;34 -->
<g id="edge13" class="edge">
<title>35&#45;&gt;34</title>
<path fill="none" stroke="black" d="M459,-71.7C459,-64.41 459,-55.73 459,-47.54"/>
<polygon fill="black" stroke="black" points="462.5,-47.62 459,-37.62 455.5,-47.62 462.5,-47.62"/>
</g>
<!-- 36 -->
<g id="node15" class="node">
<title>36</title>
<ellipse fill="none" stroke="black" cx="531" cy="-18" rx="27" ry="18"/>
<text text-anchor="middle" x="531" y="-13.32" font-family="Times,serif" font-size="14.00">36</text>
</g>
<!-- 35&#45;&gt;36 -->
<g id="edge14" class="edge">
<title>35&#45;&gt;36</title>
<path fill="none" stroke="black" d="M473.92,-74.5C483.77,-64.92 496.86,-52.19 508.03,-41.34"/>
<polygon fill="black" stroke="black" points="510.29,-44.02 515.02,-34.54 505.41,-39 510.29,-44.02"/>
</g>
</g>
</svg>
