<?xml version="1.0" encoding="UTF-8" standalone="no"?>
<!DOCTYPE svg PUBLIC "-//W3C//DTD SVG 1.1//EN"
 "http://www.w3.org/Graphics/SVG/1.1/DTD/svg11.dtd">
<!-- Generated by graphviz version 10.0.1 (0)
 -->
<!-- Pages: 1 -->
<svg width="590pt" height="404pt"
 viewBox="0.00 0.00 590.16 404.00" xmlns="http://www.w3.org/2000/svg" xmlns:xlink="http://www.w3.org/1999/xlink">
<g id="graph0" class="graph" transform="scale(1 1) rotate(0) translate(4 400)">
<polygon fill="white" stroke="none" points="-4,4 -4,-400 586.16,-400 586.16,4 -4,4"/>
<!-- 200 -->
<g id="node1" class="node">
<title>200</title>
<ellipse fill="none" stroke="black" cx="280" cy="-378" rx="30.16" ry="18"/>
<text text-anchor="middle" x="280" y="-373.32" font-family="Times,serif" font-size="14.00">200</text>
</g>
<!-- 11 -->
<g id="node2" class="node">
<title>11</title>
<ellipse fill="none" stroke="black" cx="207" cy="-306" rx="27" ry="18"/>
<text text-anchor="middle" x="207" y="-301.32" font-family="Times,serif" font-size="14.00">11</text>
</g>
<!-- 200&#45;&gt;11 -->
<g id="edge1" class="edge">
<title>200&#45;&gt;11</title>
<path fill="none" stroke="black" d="M264.52,-362.15C254.51,-352.56 241.31,-339.9 230.08,-329.13"/>
<polygon fill="black" stroke="black" points="232.69,-326.79 223.05,-322.39 227.85,-331.84 232.69,-326.79"/>
</g>
<!-- 300 -->
<g id="node16" class="node">
<title>300</title>
<ellipse fill="none" stroke="black" cx="357" cy="-306" rx="30.16" ry="18"/>
<text text-anchor="middle" x="357" y="-301.32" font-family="Times,serif" font-size="14.00">300</text>
</g>
<!-- 200&#45;&gt;300 -->
<g id="edge15" class="edge">
<title>200&#45;&gt;300</title>
<path fill="none" stroke="black" d="M295.95,-362.5C306.59,-352.83 320.77,-339.94 332.78,-329.02"/>
<polygon fill="black" stroke="black" points="334.9,-331.82 339.95,-322.5 330.19,-326.64 334.9,-331.82"/>
</g>
<!-- 5 -->
<g id="node3" class="node">
<title>5</title>
<ellipse fill="none" stroke="black" cx="99" cy="-234" rx="27" ry="18"/>
<text text-anchor="middle" x="99" y="-229.32" font-family="Times,serif" font-size="14.00">5</text>
</g>
<!-- 11&#45;&gt;5 -->
<g id="edge2" class="edge">
<title>11&#45;&gt;5</title>
<path fill="none" stroke="black" d="M188.19,-292.81C171.41,-281.93 146.61,-265.86 127.41,-253.42"/>
<polygon fill="black" stroke="black" points="129.52,-250.61 119.23,-248.11 125.72,-256.49 129.52,-250.61"/>
</g>
<!-- 15 -->
<g id="node8" class="node">
<title>15</title>
<ellipse fill="none" stroke="black" cx="207" cy="-234" rx="27" ry="18"/>
<text text-anchor="middle" x="207" y="-229.32" font-family="Times,serif" font-size="14.00">15</text>
</g>
<!-- 11&#45;&gt;15 -->
<g id="edge7" class="edge">
<title>11&#45;&gt;15</title>
<path fill="none" stroke="black" d="M207,-287.7C207,-280.41 207,-271.73 207,-263.54"/>
<polygon fill="black" stroke="black" points="210.5,-263.62 207,-253.62 203.5,-263.62 210.5,-263.62"/>
</g>
<!-- 3 -->
<g id="node4" class="node">
<title>3</title>
<ellipse fill="none" stroke="black" cx="27" cy="-162" rx="27" ry="18"/>
<text text-anchor="middle" x="27" y="-157.32" font-family="Times,serif" font-size="14.00">3</text>
</g>
<!-- 5&#45;&gt;3 -->
<g id="edge3" class="edge">
<title>5&#45;&gt;3</title>
<path fill="none" stroke="black" d="M84.08,-218.5C74.23,-208.92 61.14,-196.19 49.97,-185.34"/>
<polygon fill="black" stroke="black" points="52.59,-183 42.98,-178.54 47.71,-188.02 52.59,-183"/>
</g>
<!-- 7 -->
<g id="node5" class="node">
<title>7</title>
<ellipse fill="none" stroke="black" cx="99" cy="-162" rx="27" ry="18"/>
<text text-anchor="middle" x="99" y="-157.32" font-family="Times,serif" font-size="14.00">7</text>
</g>
<!-- 5&#45;&gt;7 -->
<g id="edge4" class="edge">
<title>5&#45;&gt;7</title>
<path fill="none" stroke="black" d="M99,-215.7C99,-208.41 99,-199.73 99,-191.54"/>
<polygon fill="black" stroke="black" points="102.5,-191.62 99,-181.62 95.5,-191.62 102.5,-191.62"/>
</g>
<!-- 8 -->
<g id="node6" class="node">
<title>8</title>
<ellipse fill="none" stroke="black" cx="99" cy="-90" rx="27" ry="18"/>
<text text-anchor="middle" x="99" y="-85.33" font-family="Times,serif" font-size="14.00">8</text>
</g>
<!-- 7&#45;&gt;8 -->
<g id="edge5" class="edge">
<title>7&#45;&gt;8</title>
<path fill="none" stroke="black" d="M99,-143.7C99,-136.41 99,-127.73 99,-119.54"/>
<polygon fill="black" stroke="black" points="102.5,-119.62 99,-109.62 95.5,-119.62 102.5,-119.62"/>
</g>
<!-- 9 -->
<g id="node7" class="node">
<title>9</title>
<ellipse fill="none" stroke="black" cx="99" cy="-18" rx="27" ry="18"/>
<text text-anchor="middle" x="99" y="-13.32" font-family="Times,serif" font-size="14.00">9</text>
</g>
<!-- 8&#45;&gt;9 -->
<g id="edge6" class="edge">
<title>8&#45;&gt;9</title>
<path fill="none" stroke="black" d="M99,-71.7C99,-64.41 99,-55.73 99,-47.54"/>
<polygon fill="black" stroke="black" points="102.5,-47.62 99,-37.62 95.5,-47.62 102.5,-47.62"/>
</g>
<!-- 12 -->
<g id="node9" class="node">
<title>12</title>
<ellipse fill="none" stroke="black" cx="171" cy="-162" rx="27" ry="18"/>
<text text-anchor="middle" x="171" y="-157.32" font-family="Times,serif" font-size="14.00">12</text>
</g>
<!-- 15&#45;&gt;12 -->
<g id="edge8" class="edge">
<title>15&#45;&gt;12</title>
<path fill="none" stroke="black" d="M198.65,-216.76C194.42,-208.55 189.19,-198.37 184.42,-189.09"/>
<polygon fill="black" stroke="black" points="187.68,-187.79 180,-180.49 181.46,-190.99 187.68,-187.79"/>
</g>
<!-- 18 -->
<g id="node12" class="node">
<title>18</title>
<ellipse fill="none" stroke="black" cx="243" cy="-162" rx="27" ry="18"/>
<text text-anchor="middle" x="243" y="-157.32" font-family="Times,serif" font-size="14.00">18</text>
</g>
<!-- 15&#45;&gt;18 -->
<g id="edge11" class="edge">
<title>15&#45;&gt;18</title>
<path fill="none" stroke="black" d="M215.35,-216.76C219.58,-208.55 224.81,-198.37 229.58,-189.09"/>
<polygon fill="black" stroke="black" points="232.54,-190.99 234,-180.49 226.32,-187.79 232.54,-190.99"/>
</g>
<!-- 13 -->
<g id="node10" class="node">
<title>13</title>
<ellipse fill="none" stroke="black" cx="171" cy="-90" rx="27" ry="18"/>
<text text-anchor="middle" x="171" y="-85.33" font-family="Times,serif" font-size="14.00">13</text>
</g>
<!-- 12&#45;&gt;13 -->
<g id="edge9" class="edge">
<title>12&#45;&gt;13</title>
<path fill="none" stroke="black" d="M171,-143.7C171,-136.41 171,-127.73 171,-119.54"/>
<polygon fill="black" stroke="black" points="174.5,-119.62 171,-109.62 167.5,-119.62 174.5,-119.62"/>
</g>
<!-- 14 -->
<g id="node11" class="node">
<title>14</title>
<ellipse fill="none" stroke="black" cx="171" cy="-18" rx="27" ry="18"/>
<text text-anchor="middle" x="171" y="-13.32" font-family="Times,serif" font-size="14.00">14</text>
</g>
<!-- 13&#45;&gt;14 -->
<g id="edge10" class="edge">
<title>13&#45;&gt;14</title>
<path fill="none" stroke="black" d="M171,-71.7C171,-64.41 171,-55.73 171,-47.54"/>
<polygon fill="black" stroke="black" points="174.5,-47.62 171,-37.62 167.5,-47.62 174.5,-47.62"/>
</g>
<!-- 17 -->
<g id="node13" class="node">
<title>17</title>
<ellipse fill="none" stroke="black" cx="243" cy="-90" rx="27" ry="18"/>
<text text-anchor="middle" x="243" y="-85.33" font-family="Times,serif" font-size="14.00">17</text>
</g>
<!-- 18&#45;&gt;17 -->
<g id="edge12" class="edge">
<title>18&#45;&gt;17</title>
<path fill="none" stroke="black" d="M243,-143.7C243,-136.41 243,-127.73 243,-119.54"/>
<polygon fill="black" stroke="black" points="246.5,-119.62 243,-109.62 239.5,-119.62 246.5,-119.62"/>
</g>
<!-- 19 -->
<g id="node15" class="node">
<title>19</title>
<ellipse fill="none" stroke="black" cx="315" cy="-90" rx="27" ry="18"/>
<text text-anchor="middle" x="315" y="-85.33" font-family="Times,serif" font-size="14.00">19</text>
</g>
<!-- 18&#45;&gt;19 -->
<g id="edge14" class="edge">
<title>18&#45;&gt;19</title>
<path fill="none" stroke="black" d="M257.92,-146.5C267.77,-136.92 280.86,-124.19 292.03,-113.34"/>
<polygon fill="black" stroke="black" points="294.29,-116.02 299.02,-106.54 289.41,-111 294.29,-116.02"/>
</g>
<!-- 16 -->
<g id="node14" class="node">
<title>16</title>
<ellipse fill="none" stroke="black" cx="243" cy="-18" rx="27" ry="18"/>
<text text-anchor="middle" x="243" y="-13.32" font-family="Times,serif" font-size="14.00">16</text>
</g>
<!-- 17&#45;&gt;16 -->
<g id="edge13" class="edge">
<title>17&#45;&gt;16</title>
<path fill="none" stroke="black" d="M243,-71.7C243,-64.41 243,-55.73 243,-47.54"/>
<polygon fill="black" stroke="black" points="246.5,-47.62 243,-37.62 239.5,-47.62 246.5,-47.62"/>
</g>
<!-- 250 -->
<g id="node17" class="node">
<title>250</title>
<ellipse fill="none" stroke="black" cx="357" cy="-234" rx="30.16" ry="18"/>
<text text-anchor="middle" x="357" y="-229.32" font-family="Times,serif" font-size="14.00">250</text>
</g>
<!-- 300&#45;&gt;250 -->
<g id="edge16" class="edge">
<title>300&#45;&gt;250</title>
<path fill="none" stroke="black" d="M357,-287.7C357,-280.41 357,-271.73 357,-263.54"/>
<polygon fill="black" stroke="black" points="360.5,-263.62 357,-253.62 353.5,-263.62 360.5,-263.62"/>
</g>
<!-- 350 -->
<g id="node20" class="node">
<title>350</title>
<ellipse fill="none" stroke="black" cx="474" cy="-234" rx="30.16" ry="18"/>
<text text-anchor="middle" x="474" y="-229.32" font-family="Times,serif" font-size="14.00">350</text>
</g>
<!-- 300&#45;&gt;350 -->
<g id="edge19" class="edge">
<title>300&#45;&gt;350</title>
<path fill="none" stroke="black" d="M377.92,-292.49C396.14,-281.59 422.79,-265.64 443.4,-253.31"/>
<polygon fill="black" stroke="black" points="445.18,-256.32 451.97,-248.18 441.59,-250.31 445.18,-256.32"/>
</g>
<!-- 220 -->
<g id="node18" class="node">
<title>220</title>
<ellipse fill="none" stroke="black" cx="318" cy="-162" rx="30.16" ry="18"/>
<text text-anchor="middle" x="318" y="-157.32" font-family="Times,serif" font-size="14.00">220</text>
</g>
<!-- 250&#45;&gt;220 -->
<g id="edge17" class="edge">
<title>250&#45;&gt;220</title>
<path fill="none" stroke="black" d="M347.76,-216.41C343.24,-208.3 337.7,-198.35 332.62,-189.25"/>
<polygon fill="black" stroke="black" points="335.84,-187.82 327.91,-180.79 329.72,-191.23 335.84,-187.82"/>
</g>
<!-- 280 -->
<g id="node19" class="node">
<title>280</title>
<ellipse fill="none" stroke="black" cx="396" cy="-162" rx="30.16" ry="18"/>
<text text-anchor="middle" x="396" y="-157.32" font-family="Times,serif" font-size="14.00">280</text>
</g>
<!-- 250&#45;&gt;280 -->
<g id="edge18" class="edge">
<title>250&#45;&gt;280</title>
<path fill="none" stroke="black" d="M366.24,-216.41C370.76,-208.3 376.3,-198.35 381.38,-189.25"/>
<polygon fill="black" stroke="black" points="384.28,-191.23 386.09,-180.79 378.16,-187.82 384.28,-191.23"/>
</g>
<!-- 340 -->
<g id="node21" class="node">
<title>340</title>
<ellipse fill="none" stroke="black" cx="474" cy="-162" rx="30.16" ry="18"/>
<text text-anchor="middle" x="474" y="-157.32" font-family="Times,serif" font-size="14.00">340</text>
</g>
<!-- 350&#45;&gt;340 -->
<g id="edge20" class="edge">
<title>350&#45;&gt;340</title>
<path fill="none" stroke="black" d="M474,-215.7C474,-208.41 474,-199.73 474,-191.54"/>
<polygon fill="black" stroke="black" points="477.5,-191.62 474,-181.62 470.5,-191.62 477.5,-191.62"/>
</g>
<!-- 360 -->
<g id="node22" class="node">
<title>360</title>
<ellipse fill="none" stroke="black" cx="552" cy="-162" rx="30.16" ry="18"/>
<text text-anchor="middle" x="552" y="-157.32" font-family="Times,serif" font-size="14.00">360</text>
</g>
<!-- 350&#45;&gt;360 -->
<g id="edge21" class="edge">
<title>350&#45;&gt;360</title>
<path fill="none" stroke="black" d="M490.16,-218.5C500.93,-208.83 515.3,-195.94 527.47,-185.02"/>
<polygon fill="black" stroke="black" points="529.63,-187.78 534.73,-178.5 524.95,-182.57 529.63,-187.78"/>
</g>
</g>
</svg>
